<svg version="1.1" id="Layer_1" xmlns="http://www.w3.org/2000/svg" xmlns:xlink="http://www.w3.org/1999/xlink" x="0px" y="0px" width="100%" viewBox="0 0 1024 1024" enable-background="new 0 0 1024 1024" xml:space="preserve">

<path fill="#BB9941" opacity="1.000000" stroke="none" d=" M559.369141,312.105042   C573.138550,301.211731 572.890625,285.261444 558.482361,273.122742   C551.812256,267.503265 543.518616,263.855011 536.291626,258.837006   C531.292297,255.365753 526.020386,251.734146 522.343994,247.023880   C514.277222,236.688522 518.499146,217.919037 529.386353,210.102188   C540.619202,202.037094 561.288879,204.161514 570.088684,210.587891   C573.728210,213.245804 575.990112,216.384186 576.114868,220.882629   C576.225403,224.871033 576.282471,228.868393 576.115356,232.851379   C576.077576,233.752335 575.014404,234.610260 574.423218,235.487976   C573.694519,234.710190 572.629333,234.050705 572.305908,233.130478   C571.592712,231.101242 571.272766,228.935852 570.758606,226.834274   C567.397766,213.096741 551.474121,205.833954 539.100891,212.592819   C533.115234,215.862457 529.635193,221.431854 529.730103,228.078278   C529.841309,235.857849 534.304138,241.490646 540.996643,245.611450   C551.492188,252.073944 562.605530,257.903809 571.949097,265.788757   C590.809448,281.704834 583.728027,307.255615 567.713379,318.007385   C550.287415,329.706665 532.140320,327.422150 513.584351,318.716003   C512.717407,318.325806 512.377686,318.181519 512.037903,318.037201   C512.037903,318.037201 512.017395,317.962524 511.796692,317.683563   C510.283966,316.600677 508.991974,315.796753 506.990143,314.551147   C506.307861,332.219421 505.666870,348.818542 505.269104,365.780853   C513.236450,366.765503 520.957520,367.431732 528.688232,367.956543   C529.753540,368.028870 530.866455,367.400208 532.291870,367.070801   C533.435364,367.396698 534.244324,367.747894 535.361450,368.336212   C540.463257,369.025299 545.256897,369.477325 550.023071,369.955383   C549.995483,369.981476 550.013062,369.907684 550.288330,370.173828   C556.893860,371.606934 563.224060,372.773895 569.924805,373.856567   C577.318726,375.035004 577.318726,375.035004 580.124512,368.086853   C580.124512,368.086853 580.291687,367.765869 580.486145,367.319885   C581.127319,365.595276 581.574036,364.316681 582.020752,363.038116   C582.020752,363.038116 582.179382,362.739929 582.402344,362.269348   C584.274780,351.563995 586.287048,341.367798 587.379944,331.073975   C587.770508,327.395203 585.937195,323.480377 585.118958,319.673279   C585.118958,319.673279 585.133484,319.311218 585.057434,318.807983   C584.737610,317.693451 584.493774,317.082184 584.249939,316.470917   C584.387756,316.231262 584.525574,315.991638 585.084595,315.174500   C587.064697,312.767975 588.623535,310.938965 590.430664,308.818542   C590.987305,309.991882 591.541138,310.964691 591.918213,312.001801   C592.428467,313.404846 592.836670,314.848114 593.230469,316.290009   C596.553833,328.460602 595.308167,340.728363 593.989807,352.996643   C593.753418,353.516724 593.516968,354.036804 593.196350,355.223694   C591.990295,360.204376 590.868408,364.518188 589.746521,368.832001   C589.746521,368.832001 589.811462,368.935364 589.633179,368.997498   C589.221130,369.326355 589.130127,369.635162 589.181763,369.986053   C589.181763,369.986053 589.020325,370.414368 588.739014,370.863892   C588.227112,372.175140 587.996521,373.036926 587.765991,373.898712   C587.765991,373.898712 587.899414,373.861603 587.558472,374.031189   C586.554810,375.462982 585.892212,376.725189 585.306335,377.841156   C593.117249,381.674744 600.562012,385.328705 608.084106,389.320984   C609.147400,390.076019 610.133484,390.492737 611.077759,390.920563   C611.036011,390.931702 611.022278,390.846344 611.195679,391.098145   C611.928833,391.549225 612.488586,391.748444 613.218201,392.184509   C613.928589,392.605164 614.469177,392.788971 615.084656,393.306213   C616.116089,394.083649 617.072632,394.527618 618.206848,395.205994   C618.934875,395.615112 619.485229,395.789856 620.231140,396.209717   C620.810242,396.618042 621.193787,396.781281 621.699951,396.929443   C621.822571,396.914368 621.995972,397.090546 622.056641,397.417511   C624.119446,398.792633 626.121521,399.840790 628.475952,400.935486   C630.801514,402.664673 632.727844,404.406311 634.755493,406.020660   C652.237915,419.939972 665.440063,437.253387 675.748840,456.980225   C684.075378,472.913757 689.626892,489.730804 692.746277,507.375946   C693.195862,509.918945 694.246094,512.633667 690.233643,514.319641   C670.679871,522.536011 650.455566,527.724731 629.205688,527.932190   C591.737732,528.297974 557.784424,516.935730 526.896973,496.083344   C524.035889,494.151733 522.340393,493.953217 519.599854,496.184296   C506.975464,506.461945 493.049805,514.812805 477.637238,519.913147   C465.727692,523.854187 453.223816,525.999390 440.673523,528.702026   C439.555847,528.316650 438.749115,528.048096 437.941803,528.046265   C422.919434,528.012085 407.896942,527.990601 392.874664,528.035217   C391.605133,528.038940 390.337067,528.529541 388.664032,528.822388   C372.149109,524.449036 355.969971,520.278870 339.958160,515.542969   C332.540863,513.349121 332.532562,512.811035 334.367889,505.343719   C336.852509,495.234589 339.605957,485.191559 342.244110,475.120178   C342.244110,475.120178 342.220001,475.018738 342.464935,474.843750   C343.921051,472.110901 345.174561,469.572083 346.337067,466.992279   C364.008759,427.775269 390.952881,397.980988 432.134979,382.736755   C435.494812,381.493042 436.087372,380.103394 435.207001,376.477722   C431.567078,361.487213 427.067413,346.509827 425.517883,331.259949   C423.812653,314.477173 423.991791,297.331909 425.145935,280.467499   C427.161377,251.017319 439.020813,225.219223 457.689392,202.488403   C460.200317,199.431137 462.753662,196.408752 465.287384,193.370209   C465.287384,193.370209 465.347748,193.339096 465.672058,193.225464   C469.333160,190.193268 472.488281,187.027618 476.046967,184.410706   C482.284546,179.823792 488.769592,175.573425 495.526062,171.160797   C498.018616,170.456299 500.136108,169.773056 503.899628,168.558701   C502.621918,171.476410 502.328644,173.485748 501.168701,174.553955   C497.006348,178.387085 496.950043,182.891129 501.490265,187.411072   C501.915802,186.905472 502.472900,186.469620 502.721375,185.899323   C503.182526,184.840897 503.627350,183.728149 503.794373,182.596054   C505.650482,170.014145 505.580536,157.453659 502.883575,144.997513   C502.594147,143.660797 501.015167,142.603302 500.034393,141.416290   C499.065186,142.622986 497.349884,143.772964 497.253052,145.046005   C496.777008,151.306564 496.749451,157.600479 496.520538,163.881042   C496.457062,165.623047 496.246155,167.359665 495.727600,169.079010   C493.478973,167.413345 491.605682,165.767426 489.684753,163.709091   C489.677399,158.264130 489.717682,153.231583 489.830963,147.879059   C489.899567,147.340302 489.895172,147.121521 489.900085,146.586395   C489.960754,145.851425 490.012085,145.432785 490.265839,144.783279   C490.557251,143.960037 490.646240,143.367676 490.794128,142.403748   C492.969177,138.731918 495.085297,135.431641 497.518890,132.115707   C498.245148,131.984253 498.653931,131.868423 499.450012,131.778778   C500.870209,131.867477 501.903107,131.930008 503.166595,132.197845   C504.155121,132.723190 504.913055,133.043213 505.768433,133.608627   C506.203949,134.250015 506.542053,134.646011 506.905762,135.057159   C506.931305,135.072311 506.946289,135.129807 507.014282,135.438019   C507.739166,136.824066 508.396057,137.901901 509.070984,139.286194   C509.373444,140.115768 509.657837,140.638901 509.981567,141.493286   C510.378693,142.872482 510.736481,143.920441 511.076355,145.389786   C511.641632,151.738190 512.774231,157.673370 512.686768,163.590485   C512.532715,174.004135 511.566010,184.403488 511.060760,194.814713   C510.216370,212.215500 509.467285,229.620926 508.337830,247.187134   C507.466644,254.388000 506.909912,261.424530 506.464264,268.468048   C506.435425,268.923676 507.262115,269.433380 507.771423,270.229675   C507.731232,271.371277 507.610443,272.201141 507.135193,273.281067   C506.789001,281.326385 506.797211,289.121643 506.879395,297.293884   C509.150208,305.053497 514.379089,309.682526 520.954956,313.088348   C520.954956,313.088348 520.992188,313.021851 521.137939,313.329468   C533.139771,320.292786 545.047058,322.383484 557.071655,314.039307   C557.071655,314.039307 557.006836,314.015717 557.327881,313.955872   C558.222290,313.299042 558.795715,312.702057 559.369141,312.105042  M669.651794,513.031982   C670.074219,512.928528 670.496582,512.825073 671.494324,512.732910   C671.997314,512.482788 672.500305,512.232727 673.595032,511.946747   C674.086426,511.642609 674.577881,511.338501 675.008972,511.008972   C675.008972,511.008972 675.008179,511.074463 675.777893,511.029999   C685.285339,508.012939 685.285339,508.012939 682.227844,498.712677   C678.787354,483.335876 672.667297,469.026123 665.122681,455.252716   C647.204041,422.540527 619.619751,401.183228 585.614685,387.324921   C583.218811,386.348480 581.165039,386.255829 579.970703,389.239716   C578.436157,393.073242 576.261902,396.695679 575.102234,400.627014   C567.453857,426.555298 558.820801,452.006287 541.416870,474.074036   C540.932190,474.710999 540.447510,475.347931 540.004089,475.999146   C540.004089,475.999146 539.983032,475.960938 539.483765,476.270691   C538.792419,477.189026 538.101074,478.107330 537.125854,479.372650   C537.125854,479.372650 536.980774,479.796906 536.514587,480.094147   C536.320679,480.400299 536.126770,480.706451 535.509216,481.204559   C535.244934,481.396912 535.081909,481.653564 534.467102,482.198700   C533.961975,482.794067 533.456848,483.389465 533.001099,484.001160   C533.001099,484.001160 532.981384,483.952972 532.387878,484.291626   C531.510071,485.345825 530.632263,486.399994 529.332642,487.960754   C532.214966,489.543335 534.564514,490.833405 536.970764,492.109344   C536.970764,492.109344 536.928101,492.069458 537.213989,492.669434   C538.776062,493.498291 540.338135,494.327118 541.960388,495.126923   C541.960388,495.126923 541.914795,495.078064 542.222839,495.620880   C542.798340,495.787354 543.373901,495.953827 543.892090,496.080811   C543.892090,496.080811 543.890625,496.150391 544.156372,496.769836   C546.760437,498.206543 549.364502,499.643250 551.991699,501.014862   C551.991699,501.014862 551.927307,501.039948 552.291626,501.527374   C552.857605,501.716980 553.423584,501.906586 553.988342,502.026276   C553.988342,502.026276 553.925903,502.057770 554.379456,502.584381   C558.545532,504.305573 562.711548,506.026764 567.570068,508.058533   C569.710083,508.735962 571.850037,509.413391 574.305176,510.717102   C580.603149,512.740234 586.901184,514.763306 593.005127,517.305481   C598.317627,517.907532 603.630127,518.509583 609.574890,519.041504   C610.402588,519.180420 611.230225,519.319336 612.536072,520.183472   C622.074463,520.278870 631.615112,520.522339 641.149658,520.373169   C643.769043,520.332214 646.370056,519.117371 649.643066,518.119385   C654.788208,516.784973 659.933411,515.450623 665.001709,514.123047   C665.001709,514.123047 665.051331,514.182068 665.769531,514.315430   C666.867065,513.886230 667.964539,513.456970 669.006104,512.999695   C669.006104,512.999695 668.998657,513.061890 669.651794,513.031982  M445.533813,511.699921   C445.745819,511.148926 445.957825,510.597931 446.074158,510.102386   C446.074158,510.102386 446.138672,510.192230 446.741516,510.037872   C447.230255,509.397186 447.718994,508.756500 448.735382,507.716980   C461.871552,493.201935 475.007751,478.686859 488.634155,463.630157   C468.752197,441.654114 450.354095,417.566925 438.832947,388.689484   C393.412384,406.083984 364.878265,438.506561 348.713379,483.674042   C346.756653,490.796326 344.709686,497.896667 342.962921,505.070068   C342.755768,505.920868 344.190430,507.171478 344.937714,508.211487   C344.937714,508.211487 344.917206,508.136353 345.270477,508.758942   C347.096649,509.258881 348.922821,509.758850 350.888489,510.268646   C350.888489,510.268646 350.914734,510.131287 351.189026,510.789581   C353.789032,511.557037 356.389069,512.324463 358.994904,513.021851   C358.994904,513.021851 358.936066,513.060364 359.421936,513.605103   C361.604614,514.109314 363.787292,514.613464 366.016968,515.060120   C366.016968,515.060120 365.944305,515.075806 366.387451,515.671448   C380.078827,517.994385 393.770233,520.317383 406.821564,522.822998   C406.698944,523.206848 406.576324,523.590698 406.453735,523.974487   C412.903412,523.980225 419.353485,524.015076 425.801880,523.928589   C426.249603,523.922546 426.685211,523.013794 427.853546,522.299927   C432.945801,522.266113 438.564789,523.553894 441.012054,517.003540   C441.012054,517.003540 441.031921,517.066650 441.549164,516.846130   C441.984924,516.257080 442.420685,515.667969 443.096313,514.836426   C443.096313,514.836426 443.188019,514.507874 443.748413,514.177917   C444.168579,513.453125 444.588776,512.728271 445.000000,512.000000   C445.000000,512.000000 445.004272,512.008606 445.533813,511.699921  M498.953003,421.474243   C499.286224,418.195831 499.943237,414.912384 499.892365,411.639954   C499.735840,401.566193 499.362885,391.494324 498.926453,381.428101   C498.863007,379.964203 497.993195,378.535248 497.136078,376.291473   C495.510895,375.862518 493.789886,374.849823 492.275909,375.098328   C481.653442,376.842072 471.076538,378.862091 460.478790,380.758545   C456.477997,381.474487 455.648773,383.572906 456.410339,387.530334   C461.810333,415.590942 476.216553,438.552582 496.322144,458.729340   C497.169006,457.840790 498.051575,456.914764 499.436279,455.496246   C499.276825,453.972656 499.117371,452.449066 498.784546,450.328369   C498.827393,449.919128 498.870239,449.509918 499.457703,448.443268   C499.268036,440.592468 499.078369,432.741638 498.736755,424.284271   C498.806396,423.670227 498.876038,423.056183 498.953003,421.474243  M503.425568,451.507294   C504.268158,451.252014 505.322632,451.236511 505.922363,450.706451   C520.491577,437.829926 535.313843,425.216370 549.413208,411.841431   C556.349609,405.261383 562.314697,397.534607 567.992615,389.793762   C571.805725,384.595184 570.549805,382.249298 564.399780,380.676208   C544.930908,375.696442 525.083557,373.972595 504.282288,374.272369   C503.854523,375.937439 503.089783,377.594635 503.050842,379.268738   C502.635406,397.130951 502.222961,414.994873 502.065216,432.860535   C502.011902,438.903900 502.683044,444.953705 503.425568,451.507294  M497.452240,311.429443   C497.690979,306.450531 497.929718,301.471649 498.168457,296.492737   C497.872101,296.476074 497.575745,296.459412 497.279358,296.442749   C497.131622,297.695221 496.983887,298.947662 496.504456,299.427155   C496.433136,298.266113 496.333130,297.105988 496.294769,295.943848   C495.192291,262.503571 494.138672,229.061539 492.948364,195.624390   C492.786591,191.080124 491.945557,186.560043 491.301361,181.015869   C488.673676,182.604980 487.069672,183.389938 485.672211,184.447708   C461.774719,202.536209 445.490173,226.127258 437.208893,254.746094   C425.918915,293.762451 430.039520,332.538818 441.290039,370.907227   C441.899475,372.985626 443.133820,374.880768 444.077240,376.861237   C444.569885,376.767151 445.062531,376.673096 445.555176,376.579041   C445.700897,374.754364 446.029480,372.923157 445.964966,371.105957   C444.950043,342.527008 453.172913,317.567627 474.755157,297.926392   C475.966888,296.823608 478.921661,295.927368 479.888031,296.607513   C482.130371,298.185638 482.351898,300.503754 479.839813,302.818542   C466.666931,314.956696 458.295685,329.876709 455.561218,347.586761   C454.284576,355.854767 454.258850,364.315918 453.645508,372.981171   C468.775513,370.359772 482.731903,367.941742 497.131927,365.446838   C497.131927,359.536255 497.131927,353.727142 497.524628,347.526337   C497.391296,346.710754 497.257965,345.895142 496.987793,344.185211   C497.017181,341.775726 497.046539,339.366241 497.565521,336.301147   C497.361084,328.855286 497.156647,321.409454 496.820801,313.343903   C496.852966,312.925293 496.885162,312.506683 497.452240,311.429443  M536.533081,437.010223   C525.399597,446.593628 514.266113,456.177032 503.179688,465.719971   C509.231018,471.067657 514.804626,476.199951 520.688538,480.947723   C521.479553,481.585999 524.418335,480.830811 525.377991,479.802277   C540.935303,463.128784 552.461914,444.073029 558.841797,422.057709   C559.531555,419.677551 560.262329,417.309235 561.264954,413.965240   C552.594238,422.079407 544.846008,429.330353 536.533081,437.010223  M510.351501,492.904572   C512.116821,491.483795 513.882141,490.062988 515.713684,488.588898   C508.770996,482.760498 502.183014,477.229919 495.195190,471.363678   C478.873291,485.590271 463.853241,500.662079 450.585175,519.413635   C473.323273,515.029419 492.281982,505.831116 510.351501,492.904572  z"/>
<path fill="#BC9B43" opacity="1.000000" stroke="none" d=" M324.339844,701.916199   C326.967255,697.955139 330.275574,694.283997 332.106720,689.983826   C341.088837,668.891174 349.794159,647.677612 358.312805,626.393005   C360.120636,621.875977 360.741241,616.883789 362.127289,611.217468   C367.094147,609.658936 368.304169,610.289978 370.612793,616.114563   C380.049652,639.923157 389.470673,663.739075 399.124420,687.459961   C401.147003,692.429810 403.839752,697.200500 406.798187,701.683960   C408.224335,703.845215 410.985443,705.125549 413.900513,707.395386   C402.607758,707.395386 391.912628,707.395386 381.217499,707.395386   C381.176086,707.006042 381.134644,706.616699 381.093201,706.227417   C382.099915,705.753723 383.112061,705.291260 384.112305,704.804321   C388.518188,702.659302 390.034271,699.061768 388.319122,694.555542   C385.834473,688.027710 383.194550,681.558044 380.784302,675.003418   C379.722046,672.114624 378.195618,670.889526 374.881989,671.011719   C367.903137,671.269104 360.901123,671.056274 353.913513,670.860962   C349.297607,670.731934 345.959686,671.825439 344.604584,676.960876   C343.336884,681.765076 341.248505,686.348145 339.622803,691.063538   C337.025055,698.598145 337.232452,699.195496 343.319794,704.632629   C336.958038,705.404053 330.713867,705.668945 324.467010,705.775696   C323.992218,705.783875 323.498291,704.670898 323.013245,704.079041   C323.225891,703.710510 323.438507,703.341919 323.973511,702.436340   C324.295929,701.899292 324.339844,701.916199 324.339844,701.916199  M376.045197,662.894775   C376.045197,662.894775 376.127716,662.868713 376.050537,662.225708   C375.744476,661.661194 375.438446,661.096619 375.195984,659.796082   C371.455292,649.775757 367.714600,639.755432 363.565765,628.641724   C358.842468,640.816345 354.540466,651.905090 350.145599,663.519897   C350.213043,663.684753 350.280487,663.849548 350.454285,664.404724   C350.636902,664.610535 350.839691,664.794067 351.679108,665.501099   C359.402313,665.640442 367.125305,665.812622 374.849060,665.859131   C375.492004,665.863037 376.140076,665.018494 376.749512,664.090881   C376.543335,663.695679 376.337158,663.300415 376.045197,662.894775  z"/>
<path fill="#BE9B3F" opacity="1.000000" stroke="none" d=" M842.110291,616.943909   C841.928223,616.853455 841.746094,616.763062 841.247803,616.421753   C840.931641,616.170715 840.608276,615.905945 840.608276,615.905945   C840.608276,615.905945 840.421387,615.746704 840.316650,615.315430   C842.154968,614.270630 844.098083,613.657104 846.365356,613.293457   C852.752991,613.690979 858.817688,613.982971 864.879578,613.935425   C868.921753,613.903748 872.960022,613.388245 877.398926,613.059570   C882.185425,614.380371 886.573059,615.730896 890.960693,617.081421   C890.960693,617.081421 890.995483,617.019043 891.126099,617.290405   C891.800354,617.842712 892.343933,618.123596 892.887573,618.404419   C895.229553,621.113037 897.571594,623.821594 899.657593,627.111816   C900.088196,635.214478 901.406982,642.799133 896.690369,649.673157   C895.340454,651.640625 894.190613,653.745239 892.948975,655.786926   C892.948975,655.786926 892.925842,655.940735 892.709229,656.079712   C892.303955,656.372925 892.147339,656.554749 892.022644,656.764038   C892.022644,656.764038 891.938293,656.895142 891.590820,656.807373   C888.828308,657.700684 886.347595,658.547607 884.011841,659.690674   C879.146057,662.072083 878.723572,664.090393 881.918152,668.476196   C883.743103,670.981689 885.764038,673.378845 887.305054,676.050720   C893.523682,686.832642 897.723083,699.105652 909.529541,706.403809   C904.175049,705.899414 898.820618,705.395020 893.466125,704.890625   C889.527832,699.700989 885.589478,694.511414 881.304382,688.862061   C880.683960,688.211975 880.410278,688.021729 880.136658,687.831421   C880.136658,687.831421 880.369995,687.749390 880.299683,687.319214   C879.206604,685.226501 878.183716,683.564026 877.160828,681.901550   C877.160828,681.901550 877.171875,681.857544 877.095947,681.531067   C876.145325,680.075012 875.270691,678.945435 874.396057,677.815857   C874.396057,677.815857 874.401855,677.746948 874.388123,677.392029   C873.608276,675.728271 872.842163,674.419434 872.076050,673.110657   C872.076050,673.110657 871.865662,672.894958 871.622437,672.570679   C870.966858,671.782715 870.554565,671.319153 870.142212,670.855591   C870.142212,670.855591 870.191284,670.911072 870.115234,670.575989   C869.350586,669.504089 868.662109,668.767212 867.973572,668.030396   C867.973572,668.030396 868.000000,668.000000 867.859192,667.693848   C866.798767,666.759888 865.879089,666.132019 864.701111,665.347229   C863.274902,665.364502 862.107056,665.538635 860.626221,665.730469   C859.896301,665.723389 859.479370,665.698730 858.833008,665.501160   C858.040161,665.216858 857.476746,665.105469 856.549683,665.140503   C855.835083,665.817932 855.187195,666.343384 855.177124,666.880859   C854.989441,676.850708 854.856140,686.821899 854.828857,696.793213   C854.827759,697.193115 855.982239,697.596191 856.719727,698.340332   C858.227783,700.780579 859.614563,702.878235 860.677979,705.237183   C854.337524,705.498352 848.320251,705.498352 843.513367,705.498352   C844.306946,702.210083 845.828369,698.736511 845.878296,695.241943   C846.214600,671.693726 846.340454,648.140442 846.217712,624.590515   C846.204468,622.049866 844.163330,619.519775 842.825439,616.958435   C842.588013,616.932129 842.110291,616.943909 842.110291,616.943909  M856.428406,660.026794   C856.428406,660.026794 856.784241,660.086060 857.363342,660.748291   C864.203308,661.125732 871.146667,662.290527 878.026855,657.964478   C887.128113,652.014099 889.847595,643.156067 888.735474,632.990051   C887.715759,623.669434 881.134460,618.224670 870.782532,617.359497   C866.178711,617.255249 861.574951,617.151062 856.507263,617.270081   C856.299683,617.544922 856.092163,617.819702 855.401917,618.748047   C855.278381,627.026978 855.114258,635.305908 855.097534,643.585022   C855.095947,644.366028 856.020874,645.148926 856.672546,646.637024   C856.622192,647.113770 856.571777,647.590515 855.879272,648.398743   C855.943970,652.253540 856.008606,656.108276 856.428406,660.026794  z"/>
<path fill="#BC9B44" opacity="1.000000" stroke="none" d=" M248.044617,617.122559   C247.879181,617.076965 247.713730,617.031433 246.985016,616.754761   C238.621643,613.648804 231.331528,613.966919 224.946823,619.953735   C224.946823,619.953735 224.982254,620.004639 224.750397,620.082520   C224.332169,620.433350 224.145798,620.706299 223.959442,620.979187   C223.959442,620.979187 224.003784,620.991577 223.696198,621.145508   C222.831284,622.471741 222.273941,623.644043 221.716599,624.816406   C221.716599,624.816406 221.727325,624.861023 221.423538,625.066284   C216.929916,636.921265 223.478210,647.584106 236.974182,651.088013   C236.974182,651.088013 237.005707,651.021851 237.188873,651.317993   C241.575012,653.439880 245.777969,655.265625 249.980942,657.091370   C249.980942,657.091370 249.988342,657.022156 250.167221,657.298096   C252.889496,659.068237 255.432892,660.562378 257.976288,662.056580   C257.976288,662.056580 258.000061,662.003418 258.126892,662.299927   C259.476288,663.438232 260.698883,664.280029 261.921478,665.121826   C261.921478,665.121826 261.993683,665.057617 262.071045,665.386475   C266.619446,670.304443 269.371582,675.823914 268.650055,682.191589   C268.161438,686.503784 266.165466,690.645203 264.843658,694.862976   C264.843658,694.862976 264.851562,694.882324 264.585510,695.049194   C263.501129,696.448181 262.682770,697.680298 261.864441,698.912476   C261.864441,698.912476 261.925232,698.967346 261.658417,699.052612   C260.897156,699.737427 260.402679,700.337036 259.908203,700.936646   C259.908203,700.936646 259.991577,700.966614 259.666931,701.011353   C258.830841,701.652588 258.319427,702.249023 257.808044,702.845459   C257.808014,702.845459 257.878601,702.892273 257.582520,702.910522   C256.495941,703.603516 255.705475,704.278320 254.915009,704.953125   C254.915024,704.953125 254.980316,704.978455 254.696503,704.989868   C253.958572,705.338928 253.504440,705.676453 253.050293,706.013977   C253.050293,706.013977 253.001938,705.993591 252.666473,706.079590   C250.521393,707.082336 248.711761,707.998962 246.902130,708.915649   C246.902130,708.915649 246.977463,708.935364 246.562012,708.940796   C240.052719,709.537781 233.958878,710.129333 227.865021,710.720886   C227.865021,710.720886 227.638412,710.648438 227.284760,710.484619   C221.633698,708.837463 216.336304,707.354187 211.038925,705.870850   C207.730164,704.721252 206.598145,702.440491 206.757889,698.942993   C207.011581,693.388611 206.825592,687.814148 206.825592,682.248108   C207.545547,682.094849 208.265518,681.941528 208.985474,681.788208   C210.027618,684.487305 211.191757,687.146423 212.090179,689.892517   C215.460159,700.193420 222.652588,705.543091 233.304764,706.476624   C241.643036,707.207336 248.422058,704.248901 252.936996,697.206177   C259.262329,687.339417 256.760712,678.994202 247.894119,672.448364   C241.060104,667.403015 232.765610,664.303589 225.036652,660.509705   C209.523361,652.894653 201.683945,630.991150 218.167236,616.781067   C221.143829,614.214966 225.068558,612.748657 229.320663,610.546387   C240.811356,608.942993 251.069717,610.616333 260.906311,615.041748   C260.950317,615.493652 260.994324,615.945618 261.028687,617.189697   C261.044525,622.919006 261.070038,627.856079 261.095551,632.793152   C258.794373,634.373230 258.914520,633.936829 257.439850,630.502930   C255.586533,626.187256 252.861588,622.245789 250.014984,617.837402   C249.026321,617.395508 248.535477,617.259033 248.044617,617.122559  z"/><path fill="#BC9B44" opacity="1.000000" stroke="none" d=" M554.264038,654.455811   C557.484009,651.308533 560.703918,648.161316 564.230103,644.714722   C564.230103,653.914246 564.230103,663.310303 564.230103,672.706360   C563.789001,672.830261 563.347839,672.954163 562.906738,673.078064   C562.374695,672.087524 561.700317,671.146790 561.333862,670.098389   C559.087402,663.671448 555.980042,661.267578 549.292236,661.034485   C545.485168,660.901855 541.674194,660.881531 537.319458,660.473877   C532.647705,660.982971 532.052734,662.309570 532.194458,666.211731   C532.541931,675.781311 532.793213,685.375977 532.472412,694.940063   C532.286682,700.475464 533.265259,703.921448 536.987061,703.908813   C547.638306,703.872681 558.613953,705.393921 568.050537,698.344238   C570.604065,696.436584 573.332397,694.762634 575.988953,692.989502   C575.997437,692.997498 576.015686,693.009583 576.016113,693.407715   C576.296082,696.111328 576.575745,698.416809 576.855408,700.722351   C576.792480,700.936462 576.729614,701.150574 576.219360,701.788940   C573.784851,705.599121 570.809387,706.162598 567.041809,706.104675   C552.218384,705.876770 537.389282,706.021912 522.562317,706.001770   C521.028931,705.999695 519.495789,705.819519 518.394958,705.749451   C520.044373,701.754272 522.017151,698.304138 522.834106,694.599182   C523.558044,691.316162 522.923706,687.747742 523.016968,684.308838   C523.296204,674.012024 523.861206,663.717529 523.886841,653.421021   C523.908386,644.791626 523.141235,636.161987 523.083801,627.530090   C523.047852,622.107910 522.817566,617.001099 517.175964,613.712280   C518.356384,613.162476 518.948792,612.886597 519.645386,612.579956   C519.749512,612.549316 519.929688,612.670410 520.018921,612.836548   C520.355042,612.896912 520.601990,612.791077 520.914307,612.717651   C520.979797,612.750122 520.921753,612.884216 521.313843,612.915894   C538.687622,613.225098 555.669312,613.502686 572.752930,614.171631   C573.006226,617.311829 573.157593,620.060486 573.308960,622.809204   C573.287903,623.333862 573.266846,623.858521 573.320923,624.975952   C573.447815,625.892578 573.637268,626.067139 573.964417,626.092529   C573.964417,626.092529 573.974487,626.000732 573.841675,626.428894   C573.759155,628.878052 573.809387,630.898987 573.859619,632.919983   C572.417786,632.139465 569.982422,631.627197 569.688049,630.536987   C566.833496,619.962280 558.690552,617.674255 549.396118,617.181702   C545.257019,616.962341 541.095276,617.171509 536.079041,617.265625   C534.825684,617.805969 534.100220,618.265015 534.097717,618.727905   C534.035461,630.654846 534.048523,642.582214 534.048523,655.374451   C541.134766,655.052429 547.699402,654.754089 554.264038,654.455811  z"/>
<path fill="#BC9A42" opacity="1.000000" stroke="none" d=" M753.057190,701.712402   C753.766052,698.861816 755.060608,696.017456 755.091125,693.159668   C755.330261,670.738708 755.342957,648.315308 755.389099,625.892517   C755.402771,619.253113 753.903870,617.176697 747.819336,614.718140   C746.968689,614.374451 746.295837,613.590820 745.790283,612.681519   C752.030029,612.237488 758.021179,611.989746 764.010193,612.034485   C778.317749,612.141357 792.624268,612.386230 806.931213,612.575317   C806.931213,619.426514 806.931213,626.277710 806.931213,633.128906   C806.432617,633.265381 805.934021,633.401794 805.435364,633.538269   C804.723938,632.256836 803.703491,631.054688 803.351074,629.681152   C800.961975,620.371094 792.657532,617.691162 784.505493,617.331421   C779.123169,617.093933 773.692200,617.960632 767.774902,618.461853   C766.987976,618.432556 766.709106,618.274414 766.430237,618.116211   C766.293152,618.387756 766.036804,618.659058 766.036072,618.930969   C766.009583,629.203979 765.968933,639.477295 766.044373,649.749756   C766.054688,651.156616 766.658203,652.559082 767.057678,654.197021   C767.128235,654.430420 767.218445,654.909607 766.954468,655.158569   C766.833130,657.354858 766.975830,659.302124 767.112915,661.457092   C767.107361,661.664795 766.962280,662.054199 766.707031,662.374084   C766.316406,674.073792 766.161316,685.453430 766.092224,696.833679   C766.087891,697.551880 766.753784,698.274231 767.309448,699.257446   C768.033020,700.706482 768.555054,701.892639 769.397461,703.329590   C776.623413,703.708679 783.530212,703.942444 790.433350,703.863342   C791.605713,703.849915 792.762695,702.493896 793.955688,701.573242   C793.984558,701.388367 794.058228,701.021423 794.058228,701.021423   C794.058228,701.021423 794.010071,700.993530 794.355408,700.996033   C796.095886,700.343811 797.490967,699.689087 798.886108,699.034363   C802.345886,695.400635 805.778198,691.740112 809.284302,688.151672   C810.186951,687.227966 811.322083,686.531494 812.350464,685.730713   C812.855530,687.061218 814.017029,688.540527 813.754761,689.697021   C812.458557,695.413574 810.785828,701.044800 808.886353,706.974976   C808.526794,707.243774 808.227600,707.080750 807.875244,706.816895   C795.775452,706.371338 784.028198,706.164307 772.280029,706.050354   C771.197632,706.039795 770.109436,706.622437 768.640259,706.941528   C767.489197,706.940308 766.721802,706.927185 765.628174,706.677856   C761.189758,706.630249 757.077515,706.818848 752.940552,707.203003   C752.915771,707.398560 752.867188,707.789795 752.458496,707.837097   C750.166077,707.875061 748.282227,707.865723 746.398438,707.856384   C746.905212,707.068665 747.411987,706.281006 748.490051,705.266296   C750.100159,704.245422 751.138916,703.451477 752.177612,702.657532   C752.177612,702.657532 752.483948,702.335205 752.682739,702.128540   C752.881470,701.921936 753.057190,701.712402 753.057190,701.712402  z"/>
<path fill="#BE9C41" opacity="1.000000" stroke="none" d=" M491.394531,618.949158   C492.239990,623.977478 493.085419,629.005798 493.930878,634.034119   C493.494720,634.078796 493.058594,634.123474 492.622437,634.168091   C488.840210,629.605957 485.057953,625.043762 481.048584,619.822998   C474.262756,615.183655 467.448853,615.179626 460.462830,617.857971   C460.032684,619.061401 459.602600,620.264893 458.785645,622.082397   C458.266144,623.842285 458.018951,624.987915 458.017883,626.133850   C457.996368,649.080200 458.002075,672.026550 458.011658,694.972900   C458.011871,695.481262 458.120605,695.989685 458.267365,697.273010   C458.686035,696.150208 458.864990,695.869568 458.885345,695.577881   C458.943054,694.749512 458.936035,693.916626 458.954529,693.085510   C458.807892,700.410950 463.530029,703.942810 469.460358,707.179688   C458.945740,707.179688 448.431152,707.179688 436.877502,707.179688   C438.345612,706.168518 438.984772,705.591125 439.730072,705.237183   C444.614105,702.917053 446.958496,698.998596 446.968750,693.678711   C447.014374,670.014282 446.985535,646.349731 447.090881,622.685669   C447.106384,619.201599 445.910065,618.113281 442.355194,618.217102   C434.875183,618.435486 427.183716,617.527466 421.236084,623.466858   C419.294708,625.405579 417.759766,627.768494 416.154419,630.019653   C415.278168,631.248535 414.643494,632.649597 413.899872,633.972961   C413.346497,633.809143 412.793152,633.645325 412.239807,633.481567   C412.960602,626.826843 413.681396,620.172180 414.916931,613.289673   C415.601440,613.102722 415.771240,613.143616 416.296753,613.399719   C418.464447,613.737976 420.276306,613.965698 422.088470,613.968140   C442.517303,613.995361 462.946228,613.960083 483.374878,614.028748   C485.662689,614.036438 487.948700,614.580688 490.235565,614.876099   C490.235565,614.876099 490.190582,614.988403 490.116425,615.351135   C490.493011,616.792297 490.943787,617.870728 491.394531,618.949158  z"/>
<path fill="#BD9B45" opacity="1.000000" stroke="none" d=" M632.971619,612.138184   C632.254395,613.055420 631.666687,614.128967 630.790710,614.854614   C629.343201,616.053528 627.709778,617.027954 625.715576,618.689331   C624.857483,621.717224 624.080200,624.152039 624.074707,626.588562   C624.017883,651.719543 624.085938,676.850769 623.914001,702.234009   C624.349182,702.989014 624.983398,703.919617 625.630676,703.928772   C632.532104,704.026428 639.438477,704.076721 646.335815,703.877625   C647.561340,703.842163 648.752075,702.602905 649.994385,701.698730   C650.029907,701.477905 650.064087,701.031921 650.064087,701.031921   C650.064087,701.031921 650.014160,700.995483 650.340942,701.034668   C651.454895,700.717957 652.242065,700.362061 653.029175,700.006226   C653.029175,700.006165 652.996948,699.988586 653.297852,699.981323   C654.119385,699.687317 654.639954,699.400635 655.160583,699.113953   C658.987732,694.791016 663.008728,690.619934 666.562622,686.082947   C668.421265,683.710083 668.050659,683.419739 670.049194,685.965454   C669.563049,690.567383 669.153564,694.420166 668.744080,698.273010   C668.744080,698.273010 668.585205,698.714111 668.357056,699.197571   C667.406433,701.779663 666.684082,703.878357 665.495422,705.977051   C646.107422,705.977051 627.185669,705.977051 608.115662,705.977051   C608.453125,704.601807 608.683899,703.661255 608.914673,702.720703   C611.965332,697.775085 611.674133,692.365173 611.610107,686.809814   C611.384094,667.201538 611.399780,647.588013 611.575439,627.978821   C611.634155,621.425842 610.518250,616.006653 603.355469,613.832703   C603.086304,613.751099 603.010864,613.031250 603.410522,612.373230   C613.641174,612.137817 623.306396,612.138000 632.971619,612.138184  z"/>
<path fill="#BE9B3F" opacity="1.000000" stroke="none" d=" M698.230347,623.864929   C698.130676,618.828064 698.130676,618.828064 690.091431,612.561768   C700.330383,612.561768 709.660339,612.561768 720.494568,612.561768   C711.699707,616.761169 710.772156,623.384460 710.939758,630.918091   C711.250671,644.893372 711.015869,658.880859 711.044434,673.749268   C711.091125,680.107056 711.035217,685.579956 711.132080,691.050110   C711.217407,695.873169 711.473328,700.693176 711.685669,706.360657   C706.494202,705.939148 700.188843,705.427185 693.883545,704.915222   C693.883545,704.915222 693.954346,704.910522 694.289307,704.890869   C699.114319,702.989075 701.090576,699.954895 699.034180,694.667725   C698.917114,692.473755 698.866943,690.715210 698.890503,688.529541   C698.924133,686.082947 698.884033,684.063538 698.900330,681.660217   C698.915283,680.503540 698.873901,679.730652 698.912720,678.541321   C698.936707,676.433716 698.880615,674.742676 698.886475,672.620239   C698.906311,670.448730 698.864075,668.708618 698.883545,666.648987   C698.898621,665.900513 698.851990,665.471558 698.860352,664.601624   C698.879395,662.090515 698.843506,660.020264 698.883179,657.546875   C698.902466,655.782959 698.846252,654.422180 698.852295,652.637695   C698.872070,650.789856 698.829651,649.365845 698.868408,647.503967   C698.905884,644.394836 698.862305,641.723572 698.876099,638.630371   C698.896545,636.792725 698.859680,635.376831 698.891113,633.572998   C698.911499,632.139282 698.863647,631.093506 698.872314,629.655640   C698.695984,627.463989 698.463196,625.664429 698.230347,623.864929  z"/>
<path fill="#B4964F" opacity="1.000000" stroke="none" d=" M185.092941,616.086792   C177.112762,624.751038 169.132568,633.415283 160.738129,642.536743   C159.505203,643.966248 158.686493,644.938538 157.867798,645.910828   C157.867813,645.910828 157.934296,645.995117 157.656815,646.104248   C156.387207,646.890076 155.395065,647.566772 154.267105,647.948547   C153.644745,647.349121 153.158203,647.044495 152.671661,646.739868   C152.444626,647.489990 152.217575,648.240112 151.648254,649.045898   C149.065506,651.142029 146.825043,653.182556 144.584579,655.223083   C163.778778,655.488281 172.466721,666.639221 174.717773,676.909729   C176.998276,687.314514 171.034409,700.102844 161.931427,703.758118   C155.139923,706.485291 147.918549,707.039307 140.936279,704.668762   C133.751648,702.229492 127.923294,697.724915 124.287331,690.586914   C121.056084,694.076843 121.771248,696.693176 124.854355,699.316589   C126.114517,700.388855 126.880493,702.041931 127.579857,703.316284   C126.904823,703.039307 126.521225,702.876770 126.137619,702.714233   C118.845833,696.798340 118.486809,694.616211 123.540161,687.964905   C127.484032,691.454895 131.349182,695.053284 135.403030,698.424683   C143.296432,704.989258 155.445221,705.235657 162.454910,701.072205   C170.665421,696.195679 175.408905,685.331482 172.561142,675.932495   C169.918442,667.210205 162.821609,658.530029 150.854813,658.438599   C148.078323,658.417358 145.301529,658.435425 141.199478,658.435425   C142.736237,655.471863 143.408463,653.268311 144.785919,651.674194   C151.168655,644.287537 157.762756,637.083862 164.237137,629.775574   C165.109009,628.791382 165.809647,627.629700 166.453094,626.474182   C167.895203,623.884399 167.139359,622.232056 164.131989,622.118652   C157.820297,621.880615 151.499390,621.610168 145.187881,621.709595   C135.903198,621.855652 131.845139,628.728027 126.689270,635.946228   C126.403168,634.207947 125.662216,632.400879 125.912941,630.743896   C126.802704,624.863586 128.030792,619.034424 129.405792,612.746826   C130.105042,612.238647 130.529236,612.169617 130.974060,612.285645   C130.994720,612.470825 131.026489,612.842163 131.011444,613.134521   C130.992889,613.621887 130.989380,613.817017 130.967636,614.395691   C130.219833,618.830994 129.490250,622.882874 128.760666,626.934692   C129.180695,627.075562 129.600739,627.216370 130.020767,627.357239   C131.111038,625.991394 132.062698,624.479248 133.319336,623.289124   C136.264633,620.499695 139.331696,619.027039 143.926910,619.550781   C151.439743,620.407104 159.107712,619.827881 166.703445,620.068115   C169.791046,620.165710 173.369034,620.181213 172.643799,625.031067   C171.536545,626.052002 170.759491,627.017456 169.783051,628.003479   C169.386612,628.172363 169.189545,628.320618 168.992477,628.468933   C169.110611,628.513611 169.278305,628.630859 169.338120,628.590088   C169.580185,628.424927 169.789078,628.211243 170.341583,627.960205   C171.456787,626.945068 172.240616,625.985229 173.383499,625.006470   C174.639679,624.368225 175.591965,623.814636 176.423904,623.117493   C179.265945,620.735718 182.065643,618.303467 184.934326,615.939636   C184.987137,615.988708 185.092941,616.086792 185.092941,616.086792  z"/>
<path fill="#B69542" opacity="1.000000" stroke="none" d=" M526.546509,160.076645   C526.546509,160.076645 526.592529,160.344482 527.169800,160.308624   C541.444031,157.075546 555.144958,157.482162 568.848450,160.227173   C568.848450,160.227173 568.958801,160.197998 569.120728,160.444855   C570.174927,160.971176 571.067139,161.250656 571.959412,161.530136   C584.407471,164.347977 592.426880,172.747635 598.620239,183.161835   C603.751038,191.789246 599.713013,212.809662 591.766052,219.524536   C589.333191,216.903931 588.965698,214.311096 590.967224,211.187088   C596.359802,202.770187 596.425720,193.773026 592.440979,185.001663   C589.479431,178.482590 584.440552,173.415131 577.393433,169.644028   C574.269775,168.433090 571.718018,167.586868 569.166199,166.740662   C569.166199,166.740662 569.080688,166.778244 568.897949,166.507294   C550.370483,159.946487 532.498291,164.106735 514.933533,169.227402   C513.787415,164.633286 515.992371,163.084824 519.549622,162.321213   C521.932739,161.809647 524.217651,160.840851 526.546509,160.076645  z"/>
<path fill="#B4964F" opacity="1.000000" stroke="none" d=" M519.541260,612.610718   C518.948792,612.886597 518.356384,613.162476 517.175964,613.712280   C522.817566,617.001099 523.047852,622.107910 523.083801,627.530090   C523.141235,636.161987 523.908386,644.791626 523.886841,653.421021   C523.861206,663.717529 523.296204,674.012024 523.016968,684.308838   C522.923706,687.747742 523.558044,691.316162 522.834106,694.599182   C522.017151,698.304138 520.044373,701.754272 518.394958,705.749451   C519.495789,705.819519 521.028931,705.999695 522.562317,706.001770   C537.389282,706.021912 552.218384,705.876770 567.041809,706.104675   C570.809387,706.162598 573.784851,705.599121 576.072021,702.089539   C577.206787,706.458191 575.329468,708.285034 570.787598,708.260071   C552.493774,708.159607 534.198975,708.236633 515.904724,708.192993   C514.532837,708.189697 513.162048,707.752563 513.368347,708.383911   C515.285095,705.607605 517.985657,703.073853 518.936951,699.998840   C520.405273,695.252747 521.270447,690.145691 521.349365,685.175171   C521.644958,666.553101 521.555481,647.924194 521.527283,629.298035   C521.517822,623.061829 520.369507,617.344482 513.535583,614.742371   C513.084900,614.570740 513.013123,613.403870 513.306641,612.508301   C515.745911,612.414734 517.643616,612.512695 519.541260,612.610718  z"/>
<path fill="#BD9B45" opacity="1.000000" stroke="none" d=" M767.118530,661.249390   C766.975830,659.302124 766.833130,657.354858 767.403809,655.215271   C773.764648,655.036621 779.430115,655.314941 785.050537,654.932312   C787.264343,654.781616 789.377808,653.155762 791.536926,652.201660   C791.536926,652.201660 791.779480,652.250183 792.148621,652.103149   C792.705750,651.652222 792.893738,651.348328 793.081787,651.044495   C793.437073,650.593689 793.792358,650.142822 794.445679,649.180359   C795.245056,647.275330 795.746277,645.881836 796.247498,644.488403   C797.111267,644.742859 798.731567,645.004272 798.729309,645.250916   C798.648193,654.133545 798.426208,663.015137 798.156494,671.894836   C798.147827,672.179749 797.434021,672.443176 796.383118,673.189392   C795.739746,671.495544 795.204041,670.085144 794.463989,668.034546   C793.838013,666.669495 793.416382,665.944580 792.994751,665.219727   C792.994751,665.219727 792.968628,665.061462 792.764771,664.712158   C790.234436,663.231140 787.959900,661.278870 785.571533,661.128113   C779.447510,660.741516 773.272888,661.155457 767.118530,661.249390  z"/>
<path fill="#B4964F" opacity="1.000000" stroke="none" d=" M843.062927,616.984741   C844.163330,619.519775 846.204468,622.049866 846.217712,624.590515   C846.340454,648.140442 846.214600,671.693726 845.878296,695.241943   C845.828369,698.736511 844.306946,702.210083 843.513367,705.498352   C848.320251,705.498352 854.337524,705.498352 861.011353,705.248474   C862.111633,704.996033 862.555298,704.993469 862.998901,704.990845   C862.998901,704.990906 863.078369,705.214661 863.283081,705.446045   C863.735291,705.809265 863.997925,705.894104 864.606812,705.966736   C865.579712,706.188782 866.221741,706.375793 866.863770,706.562866   C866.623840,706.793640 866.383545,707.226379 866.144043,707.225891   C855.958984,707.206665 845.773987,707.152466 835.589417,707.063477   C835.426331,707.062012 835.267517,706.576538 834.880920,705.952393   C843.953064,704.411133 844.506470,697.415466 844.552673,690.446228   C844.694641,668.999512 844.666382,647.551208 844.575989,626.104065   C844.565735,623.656494 843.743408,621.212402 843.180420,618.116211   C843.063293,617.465698 843.062927,616.984741 843.062927,616.984741  z"/>
<path fill="#B4964F" opacity="1.000000" stroke="none" d=" M577.015503,700.536865   C576.575745,698.416809 576.296082,696.111328 576.207581,693.231873   C576.530212,692.175659 576.661682,691.693298 576.793213,691.210999   C576.586487,691.169067 576.379761,691.127136 576.173035,691.085144   C576.108887,691.717285 576.044678,692.349365 575.980469,692.981445   C573.332397,694.762634 570.604065,696.436584 568.050537,698.344238   C558.613953,705.393921 547.638306,703.872681 536.987061,703.908813   C533.265259,703.921448 532.286682,700.475464 532.472412,694.940063   C532.793213,685.375977 532.541931,675.781311 532.194458,666.211731   C532.052734,662.309570 532.647705,660.982971 536.855103,660.393311   C536.081970,662.706116 534.553467,664.741821 534.489441,666.822632   C534.203918,676.112000 534.288147,685.414429 534.339050,694.711609   C534.363220,699.127441 536.147522,702.160217 541.137390,701.909302   C547.418091,701.593567 553.895447,701.974182 559.900146,700.487671   C564.062622,699.457275 567.897949,696.152222 571.268860,693.172729   C574.053223,690.711792 575.942688,687.238403 578.492981,683.863831   C581.400146,687.819458 580.609802,691.792786 578.966919,695.832520   C578.356506,697.333435 577.771912,698.844849 577.015503,700.536865  z"/>
<path fill="#B4964F" opacity="1.000000" stroke="none" d=" M893.627808,705.163696   C898.820618,705.395020 904.175049,705.899414 909.529541,706.403809   C897.723083,699.105652 893.523682,686.832642 887.305054,676.050720   C885.764038,673.378845 883.743103,670.981689 881.918152,668.476196   C878.723572,664.090393 879.146057,662.072083 884.011841,659.690674   C886.347595,658.547607 888.828308,657.700684 891.513062,656.813171   C889.068420,658.692444 886.448914,660.650635 883.611389,662.212830   C881.058472,663.618286 880.375183,665.087463 882.725647,667.099670   C889.305664,672.732727 891.088867,681.373840 895.885925,687.981445   C901.117859,695.187927 905.842651,703.769409 916.257263,705.174622   C916.855774,705.255432 917.401306,705.728699 918.004517,706.036133   C915.119568,709.625122 899.080322,709.132019 893.627808,705.163696  z"/>
<path fill="#A78B3D" opacity="1.000000" stroke="none" d=" M711.146423,673.896790   C711.277588,682.209351 711.348633,690.470398 711.653931,699.112915   C714.450684,701.631287 717.013184,703.768250 719.640198,705.958984   C718.219788,708.080383 695.105347,708.822449 688.546509,705.994934   C690.737122,705.519348 691.986755,705.248108 693.559937,704.946045   C700.188843,705.427185 706.494202,705.939148 711.685669,706.360657   C711.473328,700.693176 711.217407,695.873169 711.132080,691.050110   C711.035217,685.579956 711.091125,680.107056 711.011963,674.274353   C710.943237,673.913330 711.086304,673.845337 711.146423,673.896790  z"/>
<path fill="#A78B3D" opacity="1.000000" stroke="none" d=" M490.334534,614.423096   C487.948700,614.580688 485.662689,614.036438 483.374878,614.028748   C462.946228,613.960083 442.517303,613.995361 422.088470,613.968140   C420.276306,613.965698 418.464447,613.737976 416.767212,613.329224   C422.268738,612.813843 427.655579,612.584045 433.506836,612.323242   C446.967377,612.315552 459.963501,612.338867 473.294128,612.533875   C476.093567,612.547119 478.558533,612.388550 481.413574,612.196533   C482.845276,612.204407 483.886841,612.245605 485.048126,612.406982   C485.471069,612.467163 485.774261,612.407166 486.394104,612.313660   C487.755188,612.258362 488.799652,612.236511 489.844116,612.214722   C490.040588,612.799866 490.237061,613.385071 490.334534,614.423096  z"/>
<path fill="#B4964F" opacity="1.000000" stroke="none" d=" M893.245483,655.655396   C894.190613,653.745239 895.340454,651.640625 896.690369,649.673157   C901.406982,642.799133 900.088196,635.214478 899.602905,627.399414   C904.859985,636.593567 902.176270,648.772400 893.245483,655.655396  z"/>
<path fill="#A78B3D" opacity="1.000000" stroke="none" d=" M322.807434,703.974487   C323.498291,704.670898 323.992218,705.783875 324.467010,705.775696   C330.713867,705.668945 336.958038,705.404053 343.462433,704.952637   C345.107941,705.115417 346.493927,705.504272 347.879883,705.893127   C347.850494,706.289551 347.821075,706.685974 347.791687,707.082397   C337.527527,707.082397 327.263397,707.082397 316.999237,707.082397   C316.961029,706.793152 316.922791,706.503967 316.884552,706.214722   C318.790222,705.433105 320.695892,704.651489 322.807434,703.974487  z"/>
<path fill="#A78B3D" opacity="1.000000" stroke="none" d=" M665.271851,707.430969   C657.367981,707.479797 649.744873,707.435303 641.192200,707.263184   C629.825317,707.325928 619.387939,707.516357 608.950562,707.706726   C608.497131,707.764709 608.043762,707.822693 607.259583,707.976746   C606.511719,707.994385 606.094543,707.915894 605.053833,707.783386   C604.006042,707.687744 603.581787,707.646118 603.157532,707.604431   C602.411987,703.394714 606.743164,704.683105 608.579712,702.813904   C608.683899,703.661255 608.453125,704.601807 608.115662,705.977051   C627.185669,705.977051 646.107422,705.977051 665.516846,706.249329   C666.028503,706.701904 666.052429,706.882202 666.076355,707.062500   C665.901733,707.154236 665.727173,707.245911 665.271851,707.430969  z"/>
<path fill="#A78B3D" opacity="1.000000" stroke="none" d=" M458.988464,692.611450   C458.936035,693.916626 458.943054,694.749512 458.885345,695.577881   C458.864990,695.869568 458.686035,696.150208 458.267365,697.273010   C458.120605,695.989685 458.011871,695.481262 458.011658,694.972900   C458.002075,672.026550 457.996368,649.080200 458.017883,626.133850   C458.018951,624.987915 458.266144,623.842285 458.623047,622.352783   C458.915833,622.461670 458.984314,622.914185 458.993225,624.023071   C458.941589,625.099426 458.949524,625.519531 458.957458,625.939575   C458.979126,648.005493 459.000763,670.071411 458.988464,692.611450  z"/>
<path fill="#B4964F" opacity="1.000000" stroke="none" d=" M460.928650,617.918457   C467.448853,615.179626 474.262756,615.183655 480.932800,619.508240   C474.494293,619.227661 467.944397,618.603333 460.928650,617.918457  z"/>
<path fill="#A78B3D" opacity="1.000000" stroke="none" d=" M767.941162,620.640991   C767.617859,624.208618 767.131714,627.425354 767.084167,630.648499   C766.974243,638.110229 767.076599,645.575195 767.040039,653.501221   C766.658203,652.559082 766.054688,651.156616 766.044373,649.749756   C765.968933,639.477295 766.009583,629.203979 766.036072,618.930969   C766.036804,618.659058 766.293152,618.387756 766.430237,618.116211   C766.709106,618.274414 766.987976,618.432556 767.458496,618.771606   C767.759277,619.399353 767.868408,619.846130 767.941162,620.640991  z"/>
<path fill="#A78B3D" opacity="1.000000" stroke="none" d=" M697.072144,700.828125   C697.783936,698.965698 698.359497,697.380554 699.018066,695.449341   C701.090576,699.954895 699.114319,702.989075 694.261658,704.913086   C694.911255,703.671692 695.923584,702.388550 697.072144,700.828125  z"/>
<path fill="#C3A774" opacity="1.000000" stroke="none" d=" M835.359863,612.506836   C838.609741,612.169434 841.918762,612.136292 845.667358,612.392822   C846.106934,612.682556 846.041199,613.043579 846.041199,613.043579   C844.098083,613.657104 842.154968,614.270630 840.222046,615.237122   C838.627747,614.663757 837.023376,613.737427 835.359863,612.506836  z"/>
<path fill="#C3A774" opacity="1.000000" stroke="none" d=" M415.036377,612.227966   C420.760437,612.049561 426.440460,612.101624 432.581451,612.253967   C427.655579,612.584045 422.268738,612.813843 416.411499,613.114136   C415.771240,613.143616 415.601440,613.102722 415.178833,612.992554   C414.925964,612.923218 414.992371,612.458496 415.036377,612.227966  z"/>
<path fill="#C3A774" opacity="1.000000" stroke="none" d=" M669.002319,698.065063   C669.153564,694.420166 669.563049,690.567383 670.050659,686.292847   C669.839417,689.866516 669.549988,693.861816 669.002319,698.065063  z"/>
<path fill="#C3A774" opacity="1.000000" stroke="none" d=" M666.431763,706.981934   C666.052429,706.882202 666.028503,706.701904 665.983093,706.249268   C666.684082,703.878357 667.406433,701.779663 668.286194,699.421021   C667.891418,701.741150 667.339294,704.321289 666.431763,706.981934  z"/>
<path fill="#C3A774" opacity="1.000000" stroke="none" d=" M751.846252,702.593262   C751.138916,703.451477 750.100159,704.245422 748.783081,705.114258   C749.508179,704.302429 750.511536,703.415710 751.846252,702.593262  z"/>
<path fill="#B4964F" opacity="1.000000" stroke="none" d=" M185.135101,612.253662   C185.248764,613.367615 185.423508,614.587158 185.345581,615.946716   C185.092941,616.086792 184.987137,615.988708 184.960770,615.643066   C184.939392,614.898804 184.944382,614.500183 185.065887,614.007263   C185.403336,613.673340 185.404648,613.428345 185.200790,613.033813   C185.215210,612.889648 185.232132,612.600342 185.232132,612.600342   C185.232132,612.600342 185.196182,612.359192 185.135101,612.253662  z"/>
<path fill="#FAE1CD" opacity="1.000000" stroke="none" d=" M574.131348,632.663757   C573.809387,630.898987 573.759155,628.878052 573.795715,626.425049   C574.055969,628.131165 574.229492,630.269348 574.131348,632.663757  z"/>
<path fill="#A78B3D" opacity="1.000000" stroke="none" d=" M491.363098,618.578003   C490.943787,617.870728 490.493011,616.792297 490.058899,615.332520   C490.494232,616.036377 490.912933,617.121643 491.363098,618.578003  z"/>
<path fill="#BE9C41" opacity="1.000000" stroke="none" d=" M459.064331,625.765869   C458.949524,625.519531 458.941589,625.099426 458.947083,624.364502   C459.030792,624.563782 459.101013,625.077942 459.064331,625.765869  z"/>
<path fill="#FAE1CD" opacity="1.000000" stroke="none" d=" M892.764099,618.103577   C892.343933,618.123596 891.800354,617.842712 891.092285,617.301758   C891.498718,617.295410 892.069702,617.549072 892.764099,618.103577  z"/>
<path fill="#A78B3D" opacity="1.000000" stroke="none" d=" M324.250732,701.905029   C324.339844,701.916199 324.295929,701.899292 324.320343,701.900635   C324.344757,701.901978 324.183838,701.734741 324.183838,701.734741   C324.183838,701.734741 324.161621,701.893921 324.250732,701.905029  z"/>
<path fill="#C3A774" opacity="1.000000" stroke="none" d=" M752.945557,701.671997   C753.057190,701.712402 752.881470,701.921936 752.835999,701.967529   C752.790527,702.013062 752.833984,701.631653 752.945557,701.671997  z"/>
<path fill="#FAE1CD" opacity="1.000000" stroke="none" d=" M573.897156,625.922363   C573.637268,626.067139 573.447815,625.892578 573.405518,625.362183   C573.588135,625.330322 573.726440,625.529175 573.897156,625.922363  z"/>
<path fill="#BE9B3F" opacity="1.000000" stroke="none" d=" M863.509888,705.221313   C863.729126,705.291260 863.828247,705.427490 864.101685,705.747681   C863.997925,705.894104 863.735291,705.809265 863.323975,705.557434   C863.160156,705.437500 863.389771,705.287476 863.509888,705.221313  z"/>
<path fill="#C3A774" opacity="1.000000" stroke="none" d=" M842.825439,616.958435   C843.062927,616.984741 843.063293,617.465698 843.050415,617.705688   C842.748230,617.812073 842.509766,617.616516 842.216187,617.151428   C842.110291,616.943909 842.588013,616.932129 842.825439,616.958435  z"/>
<path fill="#B4964F" opacity="1.000000" stroke="none" d=" M892.202148,656.700562   C892.147339,656.554749 892.303955,656.372925 892.640991,656.117065   C892.743469,656.281738 892.607544,656.489014 892.202148,656.700562  z"/>
<path fill="#C3A774" opacity="1.000000" stroke="none" d=" M840.590576,616.047974   C840.608276,615.905945 840.931641,616.170715 840.996094,616.249695   C841.060486,616.328674 840.781006,616.383911 840.781006,616.383911   C840.781006,616.383911 840.572937,616.190063 840.590576,616.047974  z"/>
<path fill="#B69542" opacity="1.000000" stroke="none" d=" M504.662445,374.158966   C504.895416,384.046448 504.821259,394.049072 504.584076,404.047821   C504.218719,419.447845 503.741608,434.845245 503.167480,450.622131   C502.683044,444.953705 502.011902,438.903900 502.065216,432.860535   C502.222961,414.994873 502.635406,397.130951 503.050842,379.268738   C503.089783,377.594635 503.854523,375.937439 504.662445,374.158966  z"/>
<path fill="#A78B3D" opacity="1.000000" stroke="none" d=" M498.949341,421.958191   C498.585999,413.297455 498.226318,404.152802 497.947937,394.116364   C497.992249,392.070923 497.955231,390.917267 497.918213,389.763580   C497.722595,385.828461 497.526978,381.893311 497.413940,377.524170   C497.993195,378.535248 498.863007,379.964203 498.926453,381.428101   C499.362885,391.494324 499.735840,401.566193 499.892365,411.639954   C499.943237,414.912384 499.286224,418.195831 498.949341,421.958191  z"/>
<path fill="#A78B3D" opacity="1.000000" stroke="none" d=" M440.673523,528.701904   C423.962341,528.950134 406.940521,528.957397 389.493500,528.879272   C390.337067,528.529541 391.605133,528.038940 392.874664,528.035217   C407.896942,527.990601 422.919434,528.012085 437.941803,528.046265   C438.749115,528.048096 439.555847,528.316650 440.673523,528.701904  z"/>
<path fill="#A78B3D" opacity="1.000000" stroke="none" d=" M612.296997,519.820923   C624.058960,519.153381 636.059937,518.848450 648.520264,518.492371   C646.370056,519.117371 643.769043,520.332214 641.149658,520.373169   C631.615112,520.522339 622.074463,520.278870 612.296997,519.820923  z"/>
<path fill="#A78B3D" opacity="1.000000" stroke="none" d=" M499.185394,448.771973   C498.822083,441.284515 498.731079,433.468353 498.764404,425.271515   C499.078369,432.741638 499.268036,440.592468 499.185394,448.771973  z"/>
<path fill="#A78B3D" opacity="1.000000" stroke="none" d=" M508.337830,247.187134   C508.657471,248.793015 508.636902,250.561646 508.395905,253.048599   C508.160065,254.615829 508.144623,255.464706 508.129211,256.313599   C508.040771,260.548523 507.952301,264.783417 507.777344,269.468140   C507.262115,269.433380 506.435425,268.923676 506.464264,268.468048   C506.909912,261.424530 507.466644,254.388000 508.337830,247.187134  z"/>
<path fill="#A78B3D" opacity="1.000000" stroke="none" d=" M505.269104,365.780853   C513.712585,365.935547 522.399292,366.453400 531.521667,367.033691   C530.866455,367.400208 529.753540,368.028870 528.688232,367.956543   C520.957520,367.431732 513.236450,366.765503 505.269104,365.780853  z"/>
<path fill="#A78B3D" opacity="1.000000" stroke="none" d=" M550.288330,370.173828   C556.319824,371.078217 562.626587,372.248749 569.243774,373.680054   C563.224060,372.773895 556.893860,371.606934 550.288330,370.173828  z"/>
<path fill="#A78B3D" opacity="1.000000" stroke="none" d=" M407.141602,522.731689   C413.736694,522.565308 420.011749,522.490234 426.706635,522.469971   C426.685211,523.013794 426.249603,523.922546 425.801880,523.928589   C419.353485,524.015076 412.903412,523.980225 406.453735,523.974487   C406.576324,523.590698 406.698944,523.206848 407.141602,522.731689  z"/>
<path fill="#A78B3D" opacity="1.000000" stroke="none" d=" M507.135254,273.281067   C507.308838,280.687958 507.127991,288.344849 506.876282,296.459351   C506.797211,289.121643 506.789001,281.326385 507.135254,273.281067  z"/>
<path fill="#A78B3D" opacity="1.000000" stroke="none" d=" M497.320740,336.628967   C497.003693,329.605957 496.931458,322.255157 496.905701,314.433960   C497.156647,321.409454 497.361084,328.855286 497.320740,336.628967  z"/>
<path fill="#A78B3D" opacity="1.000000" stroke="none" d=" M593.102173,517.045959   C598.171997,517.514526 603.144836,518.242676 608.530151,519.041199   C603.630127,518.509583 598.317627,517.907532 593.102173,517.045959  z"/>
<path fill="#C3A774" opacity="1.000000" stroke="none" d=" M495.727600,169.079010   C495.778656,169.537796 495.454407,169.976852 495.038452,170.672318   C493.547180,171.051498 492.147644,171.174271 490.280182,171.338104   C490.074646,169.033218 489.892273,166.988297 489.721161,164.532440   C491.605682,165.767426 493.478973,167.413345 495.727600,169.079010  z"/>
<path fill="#A78B3D" opacity="1.000000" stroke="none" d=" M544.265381,368.367920   C546.343506,368.720001 547.991943,369.027466 549.845459,369.632141   C545.256897,369.477325 540.463257,369.025299 535.361450,368.336212   C537.980774,368.173859 540.908203,368.248596 544.265381,368.367920  z"/>
<path fill="#A78B3D" opacity="1.000000" stroke="none" d=" M497.184784,311.758759   C496.861542,308.421448 496.805756,304.754791 496.793060,300.644135   C496.983887,298.947662 497.131622,297.695221 497.279358,296.442749   C497.575745,296.459412 497.872101,296.476074 498.168457,296.492737   C497.929718,301.471649 497.690979,306.450531 497.184784,311.758759  z"/>
<path fill="#A78B3D" opacity="1.000000" stroke="none" d=" M622.056641,397.417511   C623.938965,398.152374 625.882019,399.214203 627.974365,400.582489   C626.121521,399.840790 624.119446,398.792633 622.056641,397.417511  z"/>
<path fill="#A78B3D" opacity="1.000000" stroke="none" d=" M499.185242,455.742493   C498.939056,454.584320 498.943939,453.179871 498.953369,451.350464   C499.117371,452.449066 499.276825,453.972656 499.185242,455.742493  z"/>
<path fill="#A78B3D" opacity="1.000000" stroke="none" d=" M618.029175,394.971619   C617.072632,394.527618 616.116089,394.083649 615.107422,393.282776   C615.055237,392.925934 615.098083,392.876678 615.407349,392.926453   C616.129822,393.030884 616.543091,393.085571 616.956299,393.140259   C616.956299,393.140259 616.994202,393.067322 617.036987,393.298462   C617.384460,393.680847 617.689087,393.832031 617.993713,393.983215   C617.993713,393.983215 617.997559,394.007904 618.075317,394.186462   C618.153137,394.364990 618.256592,394.741058 618.199707,394.798645   C618.142822,394.856232 618.029175,394.971619 618.029175,394.971619  z"/>
<path fill="#A78B3D" opacity="1.000000" stroke="none" d=" M608.084106,389.320984   C608.931213,389.448364 609.855652,389.914093 610.949768,390.644623   C610.133484,390.492737 609.147400,390.076019 608.084106,389.320984  z"/>
<path fill="#A78B3D" opacity="1.000000" stroke="none" d=" M497.328278,347.722168   C497.094604,347.207001 497.057312,346.495972 497.072327,345.432251   C497.257965,345.895142 497.391296,346.710754 497.328278,347.722168  z"/>
<path fill="#C3A774" opacity="1.000000" stroke="none" d=" M490.265869,144.783279   C490.159119,144.424988 490.254822,143.835815 490.542877,143.010986   C490.646240,143.367676 490.557251,143.960037 490.265869,144.783279  z"/>
<path fill="#A78B3D" opacity="1.000000" stroke="none" d=" M615.032471,392.949341   C614.469177,392.788971 613.928589,392.605164 613.259644,392.142029   C613.131287,391.862701 613.215149,391.775818 613.488770,391.840973   C614.207581,392.229645 614.652832,392.553162 615.098083,392.876678   C615.098083,392.876678 615.055237,392.925934 615.032471,392.949341  z"/>
<path fill="#A78B3D" opacity="1.000000" stroke="none" d=" M611.195679,391.098145   C611.454041,390.889465 611.885864,390.932587 612.641235,391.011841   C612.964905,391.048004 612.980408,391.009491 613.030151,391.205383   C613.079895,391.401245 613.215149,391.775818 613.215149,391.775818   C613.215149,391.775818 613.131287,391.862701 613.089844,391.905182   C612.488586,391.748444 611.928833,391.549225 611.195679,391.098145  z"/>
<path fill="#A78B3D" opacity="1.000000" stroke="none" d=" M620.035583,395.964630   C619.485229,395.789856 618.934875,395.615112 618.206848,395.205994   C618.029175,394.971619 618.142822,394.856232 618.462463,394.884827   C619.219482,395.235107 619.656860,395.556763 620.078857,395.899475   C620.063416,395.920502 620.035583,395.964630 620.035583,395.964630  z"/>
<path fill="#A78B3D" opacity="1.000000" stroke="none" d=" M621.134460,395.985626   C621.223633,396.137909 621.312866,396.290192 621.489746,396.693512   C621.193787,396.781281 620.810242,396.618042 620.231140,396.209717   C620.035583,395.964630 620.063416,395.920502 620.339172,395.923767   C620.788086,395.946564 620.961304,395.966095 621.134460,395.985626  z"/>
<path fill="#C3A774" opacity="1.000000" stroke="none" d=" M489.830963,147.879059   C489.677917,147.972122 489.575378,147.749756 489.528137,147.516220   C489.507111,147.412231 489.597382,147.285721 489.763977,147.036102   C489.895172,147.121521 489.899567,147.340302 489.830963,147.879059  z"/>
<path fill="#D5C3D6" opacity="1.000000" stroke="none" d=" M527.002441,501.998169   C527.470703,502.348694 527.936523,502.701050 528.402344,503.053375   C528.293640,503.170380 528.096680,503.395203 528.088928,503.388855   C527.746216,503.108276 527.420227,502.807281 527.043823,502.256226   C526.995361,502.003662 527.000000,502.000000 527.002441,501.998169  z"/>
<path fill="#D5C3D6" opacity="1.000000" stroke="none" d=" M642.478760,406.043274   C642.165588,406.167572 641.855957,406.096649 641.546387,406.025757   C641.858398,405.966492 642.170349,405.907227 642.478760,406.043274  z"/>
<path fill="#D5C3D6" opacity="1.000000" stroke="none" d=" M431.041626,372.524109   C431.165283,372.835815 431.094757,373.143921 431.024200,373.452057   C430.965271,373.141541 430.906372,372.831024 431.041626,372.524109  z"/>
<path fill="#D5C3D6" opacity="1.000000" stroke="none" d=" M438.300507,219.372604   C437.993652,219.234222 437.827026,218.963776 437.660400,218.693329   C437.920502,218.875748 438.180603,219.058151 438.300507,219.372604  z"/>
<path fill="#A78B3D" opacity="1.000000" stroke="none" d=" M351.763672,664.574951   C357.549561,664.632080 363.335480,664.689209 369.815826,664.743103   C370.510284,664.739868 370.955597,664.609924 370.955597,664.609985   C372.369568,664.591736 373.783508,664.573547 375.782776,664.528809   C376.368103,664.502319 376.785767,664.568115 376.785767,664.568115   C376.140076,665.018494 375.492004,665.863037 374.849060,665.859131   C367.125305,665.812622 359.402313,665.640442 351.555054,665.150391   C351.431030,664.799683 351.763672,664.575012 351.763672,664.574951  z"/>
<path fill="#DCC6CD" opacity="1.000000" stroke="none" d=" M376.089111,662.547241   C375.936768,662.886963 375.745850,662.905151 375.267090,662.931458   C375.007233,662.406189 375.035187,661.872925 375.097778,660.935852   C375.438446,661.096619 375.744476,661.661194 376.089111,662.547241  z"/>
<path fill="#DCC6CD" opacity="1.000000" stroke="none" d=" M376.767639,664.329468   C376.785767,664.568115 376.368103,664.502319 376.186584,664.394409   C376.002899,663.978149 376.023621,663.671448 376.099121,663.135742   C376.337158,663.300415 376.543335,663.695679 376.767639,664.329468  z"/>
<path fill="#DCC6CD" opacity="1.000000" stroke="none" d=" M351.619263,664.442749   C351.763672,664.575012 351.431030,664.799683 351.246857,664.877441   C350.839691,664.794067 350.636902,664.610535 350.401123,664.209595   C350.723572,664.113098 351.099213,664.211853 351.619263,664.442749  z"/>
<path fill="#A78B3D" opacity="1.000000" stroke="none" d=" M856.905640,665.856934   C856.859863,673.250427 856.814026,680.643921 856.597717,688.768860   C856.536438,690.678650 856.645691,691.856995 856.754944,693.035339   C856.743408,694.415222 856.731873,695.795105 856.659302,697.586365   C855.982239,697.596191 854.827759,697.193115 854.828857,696.793213   C854.856140,686.821899 854.989441,676.850708 855.177124,666.880859   C855.187195,666.343384 855.835083,665.817932 856.534424,665.356079   C856.882751,665.425232 856.905640,665.856934 856.905640,665.856934  z"/>
<path fill="#A78B3D" opacity="1.000000" stroke="none" d=" M846.365356,613.293457   C846.041199,613.043579 846.106934,612.682556 846.120361,612.499878   C846.844299,612.254639 847.554871,612.192078 848.890381,612.361816   C851.023376,612.506897 852.531372,612.419617 854.039429,612.332275   C861.406860,612.526306 868.774231,612.720276 876.570862,613.001770   C872.960022,613.388245 868.921753,613.903748 864.879578,613.935425   C858.817688,613.982971 852.752991,613.690979 846.365356,613.293457  z"/>
<path fill="#A78B3D" opacity="1.000000" stroke="none" d=" M856.661621,641.065735   C856.673279,642.422913 856.684937,643.780151 856.606079,645.534119   C856.020874,645.148926 855.095947,644.366028 855.097534,643.585022   C855.114258,635.305908 855.278381,627.026978 855.673096,618.802856   C856.175720,620.581238 856.407227,622.304810 856.638672,624.028442   C856.654724,625.712891 856.670837,627.397278 856.543213,629.625854   C856.268433,630.502625 856.321472,630.803284 856.558411,631.071960   C856.573608,631.484802 856.588806,631.897705 856.492188,632.752258   C856.278687,633.537048 856.356934,633.833374 856.615112,634.082947   C856.647034,635.432983 856.678955,636.783020 856.533936,638.726807   C856.458496,639.902222 856.560059,640.484009 856.661621,641.065735  z"/>
<path fill="#A78B3D" opacity="1.000000" stroke="none" d=" M856.200317,648.233032   C856.595276,650.735107 856.669128,653.402954 856.542847,656.779419   C856.252930,658.313049 856.163086,659.138062 856.073303,659.963074   C856.008606,656.108276 855.943970,652.253540 856.200317,648.233032  z"/>
<path fill="#C3A774" opacity="1.000000" stroke="none" d=" M856.750488,623.604126   C856.407227,622.304810 856.175720,620.581238 855.914429,618.476074   C856.092163,617.819702 856.299683,617.544922 856.739197,617.158447   C856.934814,619.091187 856.898499,621.135498 856.750488,623.604126  z"/>
<path fill="#C3A774" opacity="1.000000" stroke="none" d=" M864.701111,665.347168   C863.887756,665.624146 862.816101,665.744141 861.341797,665.788452   C862.107056,665.538635 863.274902,665.364502 864.701111,665.347168  z"/>
<path fill="#C3A774" opacity="1.000000" stroke="none" d=" M856.250854,659.994934   C856.163086,659.138062 856.252930,658.313049 856.505005,657.223999   C856.757202,657.742126 856.847107,658.524353 856.860596,659.696289   C856.784241,660.086060 856.428406,660.026794 856.250854,659.994934  z"/>
<path fill="#C3A774" opacity="1.000000" stroke="none" d=" M857.267822,665.853027   C856.905640,665.856934 856.882751,665.425232 856.898071,665.209656   C857.476746,665.105469 858.040161,665.216858 858.833008,665.501099   C858.585022,665.732361 858.107483,665.790710 857.267822,665.853027  z"/>
<path fill="#B4964F" opacity="1.000000" stroke="none" d=" M521.313843,612.915894   C523.344910,612.635986 525.766602,612.190491 528.191467,612.172302   C541.326599,612.073792 554.462646,612.049744 567.598022,612.092590   C569.170471,612.097717 570.741028,612.664246 572.481812,613.375366   C555.669312,613.502686 538.687622,613.225098 521.313843,612.915894  z"/>
<path fill="#B4964F" opacity="1.000000" stroke="none" d=" M520.018921,612.836548   C519.929688,612.670410 520.390625,612.612732 520.619751,612.648987   C520.601990,612.791077 520.355042,612.896912 520.018921,612.836548  z"/>
<path fill="#C3A774" opacity="1.000000" stroke="none" d=" M793.252808,707.376953   C783.897095,707.574341 774.541931,707.799744 765.185486,707.955383   C761.398987,708.018433 757.609924,707.929321 753.344604,707.849609   C752.867188,707.789795 752.915771,707.398560 753.406982,707.197144   C757.916931,706.968506 761.935730,706.941284 765.954468,706.914001   C766.721802,706.927185 767.489197,706.940308 769.105591,706.967651   C777.720764,707.113586 785.486755,707.245300 793.252808,707.376953  z"/>
<path fill="#A78B3D" opacity="1.000000" stroke="none" d=" M793.700012,707.369446   C785.486755,707.245300 777.720764,707.113586 769.489319,706.955811   C770.109436,706.622437 771.197632,706.039795 772.280029,706.050354   C784.028198,706.164307 795.775452,706.371338 807.875244,706.816895   C803.534119,707.174500 798.840698,707.268250 793.700012,707.369446  z"/>
<path fill="#A78B3D" opacity="1.000000" stroke="none" d=" M766.707031,662.374084   C767.008911,674.055176 767.055542,686.056213 767.104980,698.525879   C766.753784,698.274231 766.087891,697.551880 766.092224,696.833679   C766.161316,685.453430 766.316406,674.073792 766.707031,662.374084  z"/>
<path fill="#A78B3D" opacity="1.000000" stroke="none" d=" M769.397461,703.329590   C777.084412,702.681885 785.091797,702.284973 793.512939,701.823120   C792.762695,702.493896 791.605713,703.849915 790.433350,703.863342   C783.530212,703.942444 776.623413,703.708679 769.397461,703.329590  z"/>
<path fill="#A78B3D" opacity="1.000000" stroke="none" d=" M765.628174,706.677856   C761.935730,706.941284 757.916931,706.968506 753.431763,707.001648   C757.077515,706.818848 761.189758,706.630249 765.628174,706.677856  z"/>
<path fill="#A78B3D" opacity="1.000000" stroke="none" d=" M623.914001,702.234009   C632.450806,701.970459 640.782471,701.958984 649.536499,701.933472   C648.752075,702.602905 647.561340,703.842163 646.335815,703.877625   C639.438477,704.076721 632.532104,704.026428 625.630676,703.928772   C624.983398,703.919617 624.349182,702.989014 623.914001,702.234009  z"/>
<path fill="#D5C3D6" opacity="1.000000" stroke="none" d=" M698.868347,647.503967   C698.656189,645.189636 698.525208,642.437561 698.606445,639.368835   C698.862305,641.723572 698.905884,644.394836 698.868347,647.503967  z"/>
<path fill="#D5C3D6" opacity="1.000000" stroke="none" d=" M698.890503,688.529541   C698.684021,686.848328 698.551208,684.739990 698.631226,682.337891   C698.884033,684.063538 698.924133,686.082947 698.890503,688.529541  z"/>
<path fill="#D5C3D6" opacity="1.000000" stroke="none" d=" M698.912720,678.541321   C698.692749,677.176636 698.552917,675.395386 698.618774,673.332886   C698.880615,674.742676 698.936707,676.433716 698.912720,678.541321  z"/>
<path fill="#D5C3D6" opacity="1.000000" stroke="none" d=" M698.883179,657.546875   C698.671387,656.496338 698.535156,655.042603 698.594482,653.325134   C698.846252,654.422180 698.902466,655.782959 698.883179,657.546875  z"/>
<path fill="#D5C3D6" opacity="1.000000" stroke="none" d=" M698.891113,633.572998   C698.692383,632.817261 698.561951,631.673584 698.623657,630.288818   C698.863647,631.093506 698.911499,632.139282 698.891113,633.572998  z"/>
<path fill="#D5C3D6" opacity="1.000000" stroke="none" d=" M698.883545,666.648987   C698.711121,666.436523 698.600342,665.904663 698.647461,665.207642   C698.851990,665.471558 698.898621,665.900513 698.883545,666.648987  z"/>
<path fill="#BD9B45" opacity="1.000000" stroke="none" d=" M181.625397,697.200562   C180.944443,698.027588 180.408981,698.562927 179.742416,699.353149   C178.823700,700.211121 178.036087,700.814270 177.102203,701.681152   C176.301956,702.348572 175.648010,702.752136 174.826569,703.396057   C174.137375,703.785767 173.615677,703.935181 172.522522,704.176025   C171.638565,704.533508 171.326096,704.799683 171.013611,705.065796   C171.013611,705.065796 171.031464,705.003723 170.634293,705.008911   C168.766052,705.202698 167.295303,705.393982 165.823837,705.579346   C159.356796,706.393982 152.891296,707.807678 146.421783,707.826721   C141.426239,707.841431 136.425568,706.106384 131.427170,705.149292   C130.814621,705.137878 130.202072,705.126404 129.282776,705.073669   C128.690704,704.636841 128.405380,704.241272 127.995674,703.638306   C126.880493,702.041931 126.114517,700.388855 124.854355,699.316589   C121.771248,696.693176 121.056084,694.076843 124.287331,690.586914   C127.923294,697.724915 133.751648,702.229492 140.936279,704.668762   C147.918549,707.039307 155.139923,706.485291 161.931427,703.758118   C171.034409,700.102844 176.998276,687.314514 174.717773,676.909729   C172.466721,666.639221 163.778778,655.488281 144.584579,655.223083   C146.825043,653.182556 149.065506,651.142029 151.652847,649.050415   C151.999725,648.999390 152.005905,649.005920 151.916504,649.245728   C152.026138,650.040466 152.225174,650.595459 152.424210,651.150452   C152.507690,651.626892 152.591171,652.103271 153.113007,653.014893   C158.056000,653.283997 162.560638,653.117859 167.065262,652.951782   C167.065262,652.951782 166.999939,652.972595 167.242035,653.226807   C169.493423,653.968018 171.502731,654.455017 173.512024,654.942017   C174.463104,655.265442 175.414154,655.588867 176.661194,655.983154   C179.407379,658.611450 181.857590,661.168945 184.572754,663.926575   C188.417252,673.127808 189.152145,682.164062 185.096588,691.635498   C183.936874,693.644592 182.853882,695.276733 181.625397,697.200562  z"/>
<path fill="#BE9B3F" opacity="1.000000" stroke="none" d=" M184.949356,614.101562   C184.944382,614.500183 184.939392,614.898804 184.907959,615.593994   C182.065643,618.303467 179.265945,620.735718 176.423904,623.117493   C175.591965,623.814636 174.639679,624.368225 173.370926,624.993652   C172.999298,624.999756 172.973984,624.975586 172.973984,624.975586   C173.369034,620.181213 169.791046,620.165710 166.703445,620.068115   C159.107712,619.827881 151.439743,620.407104 143.926910,619.550781   C139.331696,619.027039 136.264633,620.499695 133.319336,623.289124   C132.062698,624.479248 131.111038,625.991394 130.020767,627.357239   C129.600739,627.216370 129.180695,627.075562 128.760666,626.934692   C129.490250,622.882874 130.219833,618.830994 131.437805,614.385010   C146.950668,613.980774 161.975143,613.970642 177.327942,614.116699   C179.436691,614.187561 181.217133,614.102295 183.323425,614.023010   C184.082657,614.053223 184.516006,614.077393 184.949356,614.101562  z"/>
<path fill="#A78B3D" opacity="1.000000" stroke="none" d=" M176.999634,613.960571   C161.975143,613.970642 146.950668,613.980774 131.456024,614.001587   C130.989380,613.817017 130.992889,613.621887 131.329865,613.175049   C132.458145,612.696838 133.252945,612.470337 134.047760,612.243835   C134.474380,612.229797 134.901016,612.215759 136.003021,612.399353   C140.798035,612.477112 144.917694,612.357239 149.037338,612.237366   C155.037628,612.246216 161.037918,612.255005 167.852676,612.461548   C171.441437,612.781189 174.215744,612.903198 176.993347,613.259033   C176.996643,613.492859 176.999634,613.960510 176.999634,613.960571  z"/>
<path fill="#BE9B3F" opacity="1.000000" stroke="none" d=" M169.982422,627.982910   C170.759491,627.017456 171.536545,626.052002 172.643799,625.031067   C172.973984,624.975586 172.999298,624.999756 173.011871,625.012573   C172.240616,625.985229 171.456787,626.945068 170.335602,627.951599   C169.998260,627.998291 169.982437,627.982910 169.982422,627.982910  z"/>
<path fill="#BD9B45" opacity="1.000000" stroke="none" d=" M151.995117,648.994812   C152.217575,648.240112 152.444626,647.489990 152.671661,646.739868   C153.158203,647.044495 153.644745,647.349121 154.267090,647.948547   C154.402908,648.243408 154.318726,648.256775 153.985138,648.269897   C153.103012,648.523987 152.554459,648.764954 152.005905,649.005920   C152.005905,649.005920 151.999725,648.999390 151.995117,648.994812  z"/>
<path fill="#C3A774" opacity="1.000000" stroke="none" d=" M133.668732,612.153015   C133.252945,612.470337 132.458145,612.696838 131.344910,612.882751   C131.026489,612.842163 130.994720,612.470825 130.974060,612.285645   C131.732178,612.087769 132.510956,612.074951 133.668732,612.153015  z"/>
<path fill="#BE9B3F" opacity="1.000000" stroke="none" d=" M170.004227,628.006836   C169.789078,628.211243 169.580185,628.424927 169.338120,628.590088   C169.278305,628.630859 169.110611,628.513611 168.992477,628.468933   C169.189545,628.320618 169.386612,628.172363 169.783051,628.003479   C169.982437,627.982910 169.998260,627.998291 170.004227,628.006836  z"/>
<path fill="#D5C3D6" opacity="1.000000" stroke="none" d=" M470.475586,184.041809   C470.163086,184.165726 469.854126,184.094803 469.545135,184.023880   C469.856445,183.964905 470.167786,183.905930 470.475586,184.041809  z"/>
<path fill="#BB9941" opacity="1.000000" stroke="none" d=" M508.299591,256.029633   C508.144623,255.464706 508.160065,254.615829 508.298492,253.480560   C508.437653,254.044678 508.453827,254.895172 508.299591,256.029633  z"/>
<path fill="#BC9B44" opacity="1.000000" stroke="none" d=" M575.988953,692.989502   C576.044678,692.349365 576.108887,691.717285 576.173035,691.085144   C576.379761,691.127136 576.586487,691.169067 576.793213,691.210999   C576.661682,691.693298 576.530212,692.175659 576.207153,692.833740   C576.015686,693.009583 575.997437,692.997498 575.988953,692.989502  z"/>
<path fill="#C3A774" opacity="1.000000" stroke="none" d=" M473.294128,612.533936   C475.353241,612.261902 477.746857,612.161682 480.581970,612.145752   C478.558533,612.388550 476.093567,612.547119 473.294128,612.533936  z"/>
<path fill="#C3A774" opacity="1.000000" stroke="none" d=" M485.048126,612.407043   C485.121796,612.260376 485.315216,612.233887 485.793030,612.277344   C485.774261,612.407166 485.471069,612.467163 485.048126,612.407043  z"/>
<path fill="#C3A774" opacity="1.000000" stroke="none" d=" M609.414062,707.801147   C619.387939,707.516357 629.825317,707.325928 640.737671,707.248291   C630.767578,707.539246 620.322510,707.717407 609.414062,707.801147  z"/>
<path fill="#C3A774" opacity="1.000000" stroke="none" d=" M856.839844,692.632812   C856.645691,691.856995 856.536438,690.678650 856.579834,689.234863   C856.796509,690.056396 856.860657,691.143311 856.839844,692.632812  z"/>
<path fill="#B4964F" opacity="1.000000" stroke="none" d=" M131.666565,705.448669   C136.425568,706.106384 141.426239,707.841431 146.421783,707.826721   C152.891296,707.807678 159.356796,706.393982 165.823837,705.579346   C167.295303,705.393982 168.766052,705.202698 170.656921,705.031982   C171.076736,705.049805 170.954773,705.453247 170.909973,705.658813   C161.283463,709.852112 151.394119,711.451416 141.165100,709.142273   C137.985352,708.424438 134.987213,706.902100 131.666565,705.448669  z"/>
<path fill="#C3A774" opacity="1.000000" stroke="none" d=" M853.628662,612.220337   C852.531372,612.419617 851.023376,612.506897 849.246033,612.395691   C850.390442,612.167603 851.804138,612.137939 853.628662,612.220337  z"/>
<path fill="#A78B3D" opacity="1.000000" stroke="none" d=" M166.750427,652.676147   C162.560638,653.117859 158.056000,653.283997 153.290527,653.190063   C157.498322,652.753479 161.966965,652.577026 166.750427,652.676147  z"/>
<path fill="#A78B3D" opacity="1.000000" stroke="none" d=" M173.216171,654.683838   C171.502731,654.455017 169.493423,653.968018 167.241302,653.192505   C168.972427,653.411316 170.946365,653.918518 173.216171,654.683838  z"/>
<path fill="#B4964F" opacity="1.000000" stroke="none" d=" M151.916504,649.245728   C152.554459,648.764954 153.103012,648.523987 153.952835,648.242126   C153.808029,649.067688 153.361954,649.934143 152.670044,650.975525   C152.225174,650.595459 152.026138,650.040466 151.916504,649.245728  z"/>
<path fill="#D5C3D6" opacity="1.000000" stroke="none" d=" M226.472031,643.519409   C226.451157,643.479248 226.492905,643.559570 226.472031,643.519409  z"/>
<path fill="#B4964F" opacity="1.000000" stroke="none" d=" M177.327942,614.116699   C176.999634,613.960510 176.996643,613.492859 177.188629,613.152344   C177.638077,612.657227 177.855545,612.458801 178.033051,612.216553   C179.386169,612.208923 180.739273,612.201233 182.519501,612.431763   C182.946625,612.670044 182.999802,613.057312 182.997192,613.297241   C182.994598,613.537109 182.997559,614.016968 182.997559,614.016968   C181.217133,614.102295 179.436691,614.187561 177.327942,614.116699  z"/>
<path fill="#C3A774" opacity="1.000000" stroke="none" d=" M148.582077,612.128540   C144.917694,612.357239 140.798035,612.477112 136.323212,612.404541   C140.020966,612.147949 144.073883,612.083862 148.582077,612.128540  z"/>
<path fill="#C3A774" opacity="1.000000" stroke="none" d=" M177.581238,612.134644   C177.855545,612.458801 177.638077,612.657227 177.185333,612.918518   C174.215744,612.903198 171.441437,612.781189 168.318298,612.477051   C171.022781,612.214172 174.076111,612.133423 177.581238,612.134644  z"/>
<path fill="#C3A774" opacity="1.000000" stroke="none" d=" M182.999802,613.057312   C182.999802,613.057312 182.946625,612.670044 182.923431,612.476196   C183.438599,612.254333 183.976959,612.226257 184.873718,612.399292   C185.232132,612.600342 185.215210,612.889648 184.839233,612.957520   C183.975433,613.036072 183.487625,613.046692 182.999802,613.057312  z"/>
<path fill="#A78B3D" opacity="1.000000" stroke="none" d=" M182.997192,613.297241   C183.487625,613.046692 183.975433,613.036072 184.824814,613.101685   C185.404648,613.428345 185.403336,613.673340 185.065887,614.007202   C184.516006,614.077393 184.082657,614.053223 183.323425,614.023010   C182.997559,614.016968 182.994598,613.537109 182.997192,613.297241  z"/>
<path fill="#B4964F" opacity="1.000000" stroke="none" d=" M171.324158,704.997314   C171.326096,704.799683 171.638565,704.533508 172.249969,704.169861   C172.244186,704.357849 171.939453,704.643311 171.324158,704.997314  z"/>
<path fill="#BB9941" opacity="1.000000" stroke="none" d=" M497.771301,390.057495   C497.955231,390.917267 497.992249,392.070923 498.005951,393.655945   C497.863220,392.842010 497.743805,391.596710 497.771301,390.057495  z"/>
<path fill="#DCC6CD" opacity="1.000000" stroke="none" d=" M370.854309,664.525146   C370.955597,664.609924 370.510284,664.739868 370.284485,664.688599   C370.247009,664.406616 370.478424,664.340942 370.854309,664.525146  z"/>
<path fill="#C3A774" opacity="1.000000" stroke="none" d=" M856.746460,640.714111   C856.560059,640.484009 856.458496,639.902222 856.497559,639.130737   C856.702515,639.414795 856.766907,639.888672 856.746460,640.714111  z"/>
<path fill="#C3A774" opacity="1.000000" stroke="none" d=" M856.631592,630.786499   C856.321472,630.803284 856.268433,630.502625 856.503418,630.044861   C856.639832,630.113525 856.672302,630.307251 856.631592,630.786499  z"/>
<path fill="#C3A774" opacity="1.000000" stroke="none" d=" M856.666382,633.792114   C856.356934,633.833374 856.278687,633.537048 856.474670,633.061768   C856.618591,633.120117 856.668152,633.310669 856.666382,633.792114  z"/>
</svg>